<svg width="30" height="28" viewBox="0 0 30 28" fill="none" xmlns="http://www.w3.org/2000/svg">
<g id="&#240;&#159;&#166;&#134; icon &#34;google&#34;">
<path id="Vector" d="M29.3657 11.2581H28.1714V11.2H14.8271V16.8H23.2066C21.9841 20.0599 18.6991 22.4 14.8271 22.4C9.91411 22.4 5.93082 18.6389 5.93082 14C5.93082 9.3611 9.91411 5.6 14.8271 5.6C17.0949 5.6 19.158 6.4078 20.729 7.7273L24.9228 3.7674C22.2747 1.4371 18.7325 0 14.8271 0C6.63881 0 0 6.2685 0 14C0 21.7315 6.63881 28 14.8271 28C23.0153 28 29.6541 21.7315 29.6541 14C29.6541 13.0613 29.5518 12.145 29.3657 11.2581Z" fill="#FFC107"/>
<path id="Vector_2" d="M1.70935 7.4837L6.58078 10.857C7.8989 7.7756 11.0912 5.6 14.8268 5.6C17.0946 5.6 19.1578 6.4078 20.7288 7.7273L24.9226 3.7674C22.2745 1.4371 18.7323 0 14.8268 0C9.13177 0 4.19288 3.0359 1.70935 7.4837Z" fill="#FF3D00"/>
<path id="Vector_3" d="M14.8271 28C18.6569 28 22.1368 26.6161 24.7679 24.3656L20.1789 20.699C18.6903 21.7637 16.8398 22.4 14.8271 22.4C10.9706 22.4 7.696 20.0781 6.46239 16.8378L1.62729 20.3553C4.08117 24.8892 9.06454 28 14.8271 28Z" fill="#4CAF50"/>
<path id="Vector_4" d="M29.3657 11.2581H28.1714V11.2H14.8271V16.8H23.2066C22.6194 18.3659 21.5526 19.7162 20.1767 20.6997C20.1774 20.699 20.1781 20.699 20.1789 20.6983L24.7679 24.3649C24.4431 24.6435 29.6541 21 29.6541 14C29.6541 13.0613 29.5518 12.145 29.3657 11.2581Z" fill="#1976D2"/>
</g>
</svg>
